<svg xmlns="http://www.w3.org/2000/svg" xmlns:xlink="http://www.w3.org/1999/xlink" width="5" height="20" viewBox="0 0 5 20"><defs><path id="bx01a" d="M694.39 527.781c1.097 0 1.985.882 1.985 1.97a1.977 1.977 0 0 1-1.984 1.968 1.977 1.977 0 0 1-1.985-1.969c0-1.087.889-1.969 1.985-1.969zm0 15.25c1.097 0 1.985.882 1.985 1.969a1.977 1.977 0 0 1-1.984 1.969 1.977 1.977 0 0 1-1.985-1.969c0-1.087.889-1.969 1.985-1.969zm0-7.375c1.097 0 1.985.882 1.985 1.969a1.977 1.977 0 0 1-1.984 1.969 1.977 1.977 0 0 1-1.985-1.969c0-1.087.889-1.969 1.985-1.969z"/></defs><g><g transform="translate(-692 -527)"><use fill="#cad4db" xlink:href="#bx01a"/></g></g></svg>