<svg xmlns="http://www.w3.org/2000/svg" xmlns:xlink="http://www.w3.org/1999/xlink" width="23" height="39" viewBox="0 0 23 39"><defs><path id="18zwa" d="M1239.983 76.838v33.326c0 1.567-1.32 2.838-2.95 2.838h-17.065c-1.633 0-2.951-1.271-2.951-2.838V76.838c0-1.569 1.318-2.841 2.951-2.841h17.065c1.63 0 2.95 1.272 2.95 2.84zm-16.077-.433c0 .379.17.686.384.686h8.425c.212 0 .383-.307.383-.686 0-.378-.171-.683-.383-.683h-8.425c-.215 0-.384.305-.384.683zm6.476 31.979c0-1-.844-1.81-1.88-1.81-1.04 0-1.884.81-1.884 1.81s.845 1.814 1.884 1.814c1.036 0 1.88-.814 1.88-1.814zm7.39-29.593h-18.542v25.197h18.542z"/></defs><g><g transform="translate(-1217 -74)"><use fill="#f7087a" xlink:href="#18zwa"/></g></g></svg>