<svg width="23" height="22" viewBox="0 0 23 22" fill="none" xmlns="http://www.w3.org/2000/svg">
<g filter="url(#filter0_d)">
<path d="M0 0.896973C0 0.402973 0.382976 0 0.849976 0H3.92798C4.30998 0 4.651 0.268982 4.75 0.656982L8.224 13.899H17.695L20.843 6.27698H10.351C9.88301 6.27698 9.5 5.873 9.5 5.38C9.5 4.887 9.88298 4.48401 10.35 4.48401H22.147C22.431 4.48401 22.7 4.63396 22.857 4.88696C22.9344 5.01363 22.9811 5.15673 22.9932 5.30469C23.0054 5.45265 22.9827 5.60141 22.927 5.73901L19.042 15.155C18.9 15.484 18.602 15.693 18.262 15.693H7.586C7.39522 15.6903 7.21079 15.6241 7.06177 15.505C6.91275 15.3859 6.80763 15.2205 6.763 15.035L3.289 1.79297H0.851013C0.383013 1.79297 0 1.38997 0 0.896973V0.896973ZM4.84998 19.967C4.84998 18.847 5.71398 17.9351 6.77698 17.9351C7.84098 17.9351 8.70599 18.846 8.70599 19.967C8.70599 21.088 7.84098 22 6.77698 22C5.71398 22 4.849 21.088 4.849 19.967H4.84998ZM16.915 20.1021C16.845 18.9961 17.639 18.0091 18.702 17.9351C19.765 17.8601 20.687 18.712 20.758 19.818C20.786 20.371 20.63 20.894 20.29 21.298C19.95 21.716 19.482 21.955 18.971 22H18.83C17.823 22 16.986 21.1631 16.915 20.1021V20.1021Z" fill="white"/>
</g>
<defs>
<filter id="filter0_d" x="-5" y="-5" width="32.9964" height="32" filterUnits="userSpaceOnUse" color-interpolation-filters="sRGB">
<feFlood flood-opacity="0" result="BackgroundImageFix"/>
<feColorMatrix in="SourceAlpha" type="matrix" values="0 0 0 0 0 0 0 0 0 0 0 0 0 0 0 0 0 0 127 0"/>
<feOffset/>
<feGaussianBlur stdDeviation="2.5"/>
<feColorMatrix type="matrix" values="0 0 0 0 1 0 0 0 0 1 0 0 0 0 1 0 0 0 0.25 0"/>
<feBlend mode="normal" in2="BackgroundImageFix" result="effect1_dropShadow"/>
<feBlend mode="normal" in="SourceGraphic" in2="effect1_dropShadow" result="shape"/>
</filter>
</defs>
</svg>
